<svg width="177" height="102" viewBox="0 0 177 102" fill="none" xmlns="http://www.w3.org/2000/svg">
<path d="M0.919089 101.221C-0.906151 88.6556 -0.00598786 75.8441 3.55842 63.6569C7.12284 51.4697 13.268 40.1923 21.5767 30.5903C29.8855 20.9884 40.1631 13.2868 51.7118 8.00853C63.2605 2.73026 75.8097 -0.0010617 88.5075 7.52252e-06C101.205 0.00107675 113.754 2.73452 125.302 8.01474C136.85 13.2949 147.126 20.9983 155.433 30.6016C163.74 40.205 169.883 51.4835 173.446 63.6712C177.008 75.859 177.906 88.6706 176.079 101.236L169.579 100.291C171.27 88.658 170.439 76.7972 167.141 65.5141C163.843 54.2309 158.156 43.7895 150.465 34.8989C142.775 26.0083 133.261 18.8768 122.57 13.9885C111.88 9.10015 100.262 6.56959 88.5069 6.5686C76.7516 6.5676 65.1338 9.09621 54.4423 13.9827C43.7507 18.8692 34.2359 25.9992 26.5439 34.8885C18.8519 43.7778 13.1628 54.2182 9.86289 65.5008C6.56304 76.7834 5.7297 88.644 7.41946 100.277L0.919089 101.221Z" fill="#E9ECFF"/>
</svg>
