<svg width="177" height="177" viewBox="0 0 177 177" fill="none" xmlns="http://www.w3.org/2000/svg">
<defs>
<linearGradient id="paint0_linear_144_86" x1="2.50001" y1="100" x2="174.5" y2="99.5" gradientUnits="userSpaceOnUse">
<stop stop-color="#E73636"/>
<stop offset="0.510417" stop-color="#FFD600"/>
<stop offset="1" stop-color="#92B311"/>
</linearGradient>
<linearGradient id="paint1_linear_144_86" x1="2.50001" y1="100" x2="174.5" y2="99.5" gradientUnits="userSpaceOnUse">
<stop stop-color="#E73636"/>
<stop offset="0.510417" stop-color="#FFD600"/>
<stop offset="1" stop-color="#92B311"/>
</linearGradient>
</defs>
<path d="M0.919083 101.221C-0.906148 88.6556 -0.00599347 75.8441 3.55842 63.6569C7.12284 51.4697 13.268 40.1923 21.5768 30.5903C29.8855 20.9884 40.1631 13.2868 51.7118 8.00853C63.2605 2.73027 75.8097 -0.0010632 88.5075 7.8367e-06C101.205 0.00107887 113.754 2.73453 125.302 8.01474C136.85 13.295 147.126 20.9983 155.433 30.6016C163.74 40.205 169.883 51.4835 173.446 63.6712C177.008 75.859 177.906 88.6706 176.079 101.236L169.579 100.291C171.27 88.658 170.439 76.7972 167.141 65.5141C163.843 54.2309 158.156 43.7895 150.465 34.8989C142.775 26.0083 133.261 18.8768 122.57 13.9885C111.88 9.10016 100.262 6.56959 88.5069 6.5686C76.7516 6.5676 65.1338 9.09621 54.4423 13.9827C43.7507 18.8692 34.2359 25.9992 26.5439 34.8885C18.8519 43.7778 13.1628 54.2182 9.8629 65.5008C6.56304 76.7834 5.7297 88.644 7.41945 100.277L0.919083 101.221Z" fill="#E9ECFF"/>
<path d="M0.919083 101.221C-2.45484 77.9935 3.53666 54.3767 17.5755 35.5664C31.6144 16.756 52.5507 4.29304 75.7786 0.919102C99.0065 -2.45483 122.623 3.53666 141.434 17.5755C160.244 31.6144 172.707 52.5506 176.081 75.7785L169.581 76.7227C166.457 55.2189 154.919 35.8365 137.505 22.8396C120.091 9.84276 98.2267 4.29596 76.7228 7.41947C55.2189 10.543 35.8365 22.081 22.8396 39.4952C9.84275 56.9094 4.29595 78.7733 7.41945 100.277L0.919083 101.221Z" fill="url(#paint0_linear_144_86)"/>
<path d="M0.919083 101.221C-0.904361 88.6679 -0.00777308 75.869 3.54808 63.6923C7.10394 51.5156 13.236 40.2456 21.5285 30.6461C29.8211 21.0466 40.0805 13.3421 51.6112 8.05456C63.142 2.76705 75.6747 0.0201828 88.36 0.000118228C101.045 -0.0199463 113.587 2.68726 125.134 7.93827C136.682 13.1893 146.965 20.8614 155.288 30.4345C163.611 40.0077 169.779 51.2583 173.373 63.4237C176.967 75.5891 177.904 88.385 176.121 100.944L169.617 100.021C171.269 88.3936 170.401 76.5473 167.074 65.2849C163.746 54.0224 158.036 43.6069 150.331 34.7442C142.626 25.8816 133.105 18.7789 122.415 13.9177C111.725 9.0564 100.114 6.55012 88.3704 6.5687C76.6266 6.58727 65.0241 9.13027 54.3492 14.0253C43.6742 18.9204 34.1763 26.0531 26.4992 34.9401C18.8221 43.8271 13.1453 54.2606 9.85333 65.5335C6.56139 76.8065 5.73135 88.6554 7.41945 100.277L0.919083 101.221Z" fill="url(#paint1_linear_144_86)"/>

</svg>
