<svg width="177" height="177" viewBox="0 0 177 177" fill="none" xmlns="http://www.w3.org/2000/svg">
<defs>
<linearGradient id="paint0_linear_144_85" x1="2.50001" y1="100" x2="174.5" y2="99.5" gradientUnits="userSpaceOnUse">
<stop stop-color="#E73636"/>
<stop offset="0.510417" stop-color="#FFD600"/>
<stop offset="1" stop-color="#92B311"/>
</linearGradient>
<linearGradient id="paint1_linear_144_85" x1="2.50001" y1="100" x2="174.5" y2="99.5" gradientUnits="userSpaceOnUse">
<stop stop-color="#E73636"/>
<stop offset="0.510417" stop-color="#FFD600"/>
<stop offset="1" stop-color="#92B311"/>
</linearGradient>
</defs>
<path d="M0.919083 101.221C-0.906148 88.6556 -0.00599347 75.8441 3.55842 63.6569C7.12284 51.4697 13.268 40.1923 21.5768 30.5903C29.8855 20.9884 40.1631 13.2868 51.7118 8.00853C63.2605 2.73027 75.8097 -0.0010632 88.5075 7.8367e-06C101.205 0.00107887 113.754 2.73453 125.302 8.01474C136.85 13.295 147.126 20.9983 155.433 30.6016C163.74 40.205 169.883 51.4835 173.446 63.6712C177.008 75.859 177.906 88.6706 176.079 101.236L169.579 100.291C171.27 88.658 170.439 76.7972 167.141 65.5141C163.843 54.2309 158.156 43.7895 150.465 34.8989C142.775 26.0083 133.261 18.8768 122.57 13.9885C111.88 9.10016 100.262 6.56959 88.5069 6.5686C76.7516 6.5676 65.1338 9.09621 54.4423 13.9827C43.7507 18.8692 34.2359 25.9992 26.5439 34.8885C18.8519 43.7778 13.1628 54.2182 9.8629 65.5008C6.56304 76.7834 5.7297 88.644 7.41945 100.277L0.919083 101.221Z" fill="#E9ECFF"/>
<path d="M0.919083 101.221C-2.45484 77.9935 3.53666 54.3767 17.5755 35.5664C31.6144 16.756 52.5507 4.29304 75.7786 0.919102C99.0065 -2.45483 122.623 3.53666 141.434 17.5755C160.244 31.6144 172.707 52.5506 176.081 75.7785L169.581 76.7227C166.457 55.2189 154.919 35.8365 137.505 22.8396C120.091 9.84276 98.2267 4.29596 76.7228 7.41947C55.2189 10.543 35.8365 22.081 22.8396 39.4952C9.84275 56.9094 4.29595 78.7733 7.41945 100.277L0.919083 101.221Z" fill="url(#paint0_linear_144_85)"/>
<path d="M0.919083 101.221C-0.82632 89.2051 -0.0803375 76.9582 3.11062 65.2426C6.30158 53.5271 11.8692 42.5934 19.4672 33.122C27.0652 23.6506 36.5309 15.844 47.2755 10.1879C58.0201 4.53179 69.8136 1.14723 81.9224 0.244778C94.0312 -0.657678 106.196 0.941272 117.66 4.94215C129.125 8.94303 139.643 15.2602 148.561 23.5007C157.479 31.7413 164.606 41.7288 169.498 52.8419C174.391 63.9551 176.944 75.9561 176.999 88.0984L170.431 88.1282C170.38 76.8871 168.016 65.7768 163.487 55.4885C158.957 45.2002 152.359 35.954 144.103 28.3251C135.847 20.6962 126.11 14.8479 115.496 11.1439C104.883 7.44 93.6207 5.95972 82.4106 6.7952C71.2006 7.63067 60.2823 10.764 50.3352 16.0003C40.3881 21.2366 31.625 28.4638 24.5909 37.2322C17.5569 46.0007 12.4025 56.1228 9.44833 66.9688C6.49421 77.8149 5.8036 89.1528 7.41945 100.277L0.919083 101.221Z" fill="url(#paint1_linear_144_85)"/>

</svg>
