<svg width="177" height="177" viewBox="0 0 177 177" fill="none" xmlns="http://www.w3.org/2000/svg">
<defs>
<linearGradient id="paint0_linear_144_84" x1="2.50001" y1="100" x2="174.5" y2="99.5" gradientUnits="userSpaceOnUse">
<stop stop-color="#E73636"/>
<stop offset="0.510417" stop-color="#FFD600"/>
<stop offset="1" stop-color="#92B311"/>
</linearGradient>
</defs>
<path d="M0.919083 101.221C-0.906148 88.6556 -0.00599347 75.8441 3.55842 63.6569C7.12284 51.4697 13.268 40.1923 21.5768 30.5903C29.8855 20.9884 40.1631 13.2868 51.7118 8.00853C63.2605 2.73027 75.8097 -0.0010632 88.5075 7.8367e-06C101.205 0.00107887 113.754 2.73453 125.302 8.01474C136.85 13.295 147.126 20.9983 155.433 30.6016C163.74 40.205 169.883 51.4835 173.446 63.6712C177.008 75.859 177.906 88.6706 176.079 101.236L169.579 100.291C171.27 88.658 170.439 76.7972 167.141 65.5141C163.843 54.2309 158.156 43.7895 150.465 34.8989C142.775 26.0083 133.261 18.8768 122.57 13.9885C111.88 9.10016 100.262 6.56959 88.5069 6.5686C76.7516 6.5676 65.1338 9.09621 54.4423 13.9827C43.7507 18.8692 34.2359 25.9992 26.5439 34.8885C18.8519 43.7778 13.1628 54.2182 9.8629 65.5008C6.56304 76.7834 5.7297 88.644 7.41945 100.277L0.919083 101.221Z" fill="#E9ECFF"/>
<path d="M0.919083 101.221C-2.26185 79.3222 2.87687 57.0258 15.3222 38.728C27.7675 20.4301 46.6162 7.45868 68.1525 2.37087C89.6887 -2.71695 112.35 0.44809 131.668 11.242C150.986 22.0359 165.559 39.6754 172.515 60.6829L166.279 62.7475C159.84 43.2992 146.348 26.969 128.464 16.9762C110.579 6.98342 89.6005 4.0533 69.6627 8.76349C49.7249 13.4737 32.2751 25.4824 20.7535 42.4221C9.23193 59.3618 4.47461 80.0033 7.41945 100.277L0.919083 101.221Z" fill="url(#paint0_linear_144_84)"/>

</svg>
