<svg width="177" height="177" viewBox="0 0 177 177" fill="none" xmlns="http://www.w3.org/2000/svg">
<defs>
<linearGradient id="paint0_linear_144_83" x1="2.50001" y1="100" x2="174.5" y2="99.5" gradientUnits="userSpaceOnUse">
<stop stop-color="#E73636"/>
<stop offset="0.510417" stop-color="#FFD600"/>
<stop offset="1" stop-color="#92B311"/>
</linearGradient>
</defs>
<path d="M0.919083 101.221C-0.906148 88.6556 -0.00599347 75.8441 3.55842 63.6569C7.12284 51.4697 13.268 40.1923 21.5768 30.5903C29.8855 20.9884 40.1631 13.2868 51.7118 8.00853C63.2605 2.73027 75.8097 -0.0010632 88.5075 7.8367e-06C101.205 0.00107887 113.754 2.73453 125.302 8.01474C136.85 13.295 147.126 20.9983 155.433 30.6016C163.74 40.205 169.883 51.4835 173.446 63.6712C177.008 75.859 177.906 88.6706 176.079 101.236L169.579 100.291C171.27 88.658 170.439 76.7972 167.141 65.5141C163.843 54.2309 158.156 43.7895 150.465 34.8989C142.775 26.0083 133.261 18.8768 122.57 13.9885C111.88 9.10016 100.262 6.56959 88.5069 6.5686C76.7516 6.5676 65.1338 9.09621 54.4423 13.9827C43.7507 18.8692 34.2359 25.9992 26.5439 34.8885C18.8519 43.7778 13.1628 54.2182 9.8629 65.5008C6.56304 76.7834 5.7297 88.644 7.41945 100.277L0.919083 101.221Z" fill="#E9ECFF"/>
<path d="M0.919083 101.221C-1.91997 81.6759 1.86071 61.7423 11.6593 44.5937C21.4579 27.4451 36.7113 14.067 54.9915 6.58887C73.2718 -0.889247 93.5281 -2.03759 112.536 3.32664C131.545 8.69087 148.212 20.2594 159.886 36.1907L154.588 40.0732C143.78 25.3243 128.35 14.6144 110.752 9.64832C93.1549 4.68223 74.402 5.74534 57.4786 12.6684C40.5552 19.5915 26.4339 31.9767 17.3625 47.8525C8.29119 63.7283 4.79112 82.1824 7.41945 100.277L0.919083 101.221Z" fill="url(#paint0_linear_144_83)"/>

</svg>
