<svg width="171" height="172" viewBox="0 0 171 172" fill="none" xmlns="http://www.w3.org/2000/svg">
<defs>
<linearGradient id="paint0_linear_104_821" x1="104.899" y1="-11.7851" x2="96.5983" y2="0.0104852" gradientUnits="userSpaceOnUse">
<stop offset="0.1456" stop-color="#8CD5C9"/>
<stop offset="1" stop-color="#3FBAA6"/>
</linearGradient>
<linearGradient id="paint1_linear_104_821" x1="86.712" y1="54.0344" x2="63.8111" y2="112.608" gradientUnits="userSpaceOnUse">
<stop stop-color="#FFE067"/>
<stop offset="1" stop-color="#FEC34A"/>
</linearGradient>
<linearGradient id="paint2_linear_104_821" x1="224.481" y1="79.5593" x2="134.668" y2="131.216" gradientUnits="userSpaceOnUse">
<stop offset="0.0132275" stop-color="#63C7B6"/>
<stop offset="1" stop-color="#00A388"/>
</linearGradient>
<linearGradient id="paint3_linear_104_821" x1="227.721" y1="85.1924" x2="137.909" y2="136.849" gradientUnits="userSpaceOnUse">
<stop offset="0.0132275" stop-color="#63C7B6"/>
<stop offset="1" stop-color="#00A388"/>
</linearGradient>
<linearGradient id="paint4_linear_104_821" x1="51.1999" y1="122.338" x2="-2.85949" y2="109.044" gradientUnits="userSpaceOnUse">
<stop stop-color="#E0BDF7"/>
<stop offset="1" stop-color="#8757B0"/>
</linearGradient>
<linearGradient id="paint5_linear_104_821" x1="52.3567" y1="117.634" x2="-1.70297" y2="104.341" gradientUnits="userSpaceOnUse">
<stop stop-color="#E0BDF7"/>
<stop offset="1" stop-color="#8757B0"/>
</linearGradient>
<linearGradient id="paint6_linear_104_821" x1="110.563" y1="41.306" x2="123.81" y2="45.5934" gradientUnits="userSpaceOnUse">
<stop stop-color="#BF97DE"/>
<stop offset="0.4147" stop-color="#E0BDF7"/>
<stop offset="1" stop-color="#8757B0"/>
</linearGradient>
<linearGradient id="paint7_linear_104_821" x1="123.68" y1="17.8794" x2="137.023" y2="44.7784" gradientUnits="userSpaceOnUse">
<stop stop-color="#E0BDF7"/>
<stop offset="1" stop-color="#8757B0"/>
</linearGradient>
<linearGradient id="paint8_linear_104_821" x1="21.5629" y1="43.3862" x2="43.004" y2="11.8976" gradientUnits="userSpaceOnUse">
<stop stop-color="#FEC34A"/>
<stop offset="1" stop-color="#FFE067"/>
</linearGradient>
<linearGradient id="paint9_linear_104_821" x1="42.2498" y1="9.59606" x2="34.5034" y2="18.8015" gradientUnits="userSpaceOnUse">
<stop stop-color="#FE893E"/>
<stop offset="1" stop-color="#FFAD44"/>
</linearGradient>
<linearGradient id="paint10_linear_104_821" x1="25.088" y1="24.2245" x2="43.6654" y2="46.5517" gradientUnits="userSpaceOnUse">
<stop stop-color="#FE893E"/>
<stop offset="1" stop-color="#FFAD44"/>
</linearGradient>
<linearGradient id="paint11_linear_104_821" x1="68.2816" y1="108.587" x2="108.379" y2="100.483" gradientUnits="userSpaceOnUse">
<stop stop-color="#AB83C9"/>
<stop offset="1" stop-color="#7E55A1"/>
</linearGradient>
<linearGradient id="paint12_linear_104_821" x1="68.7484" y1="91.3763" x2="130.675" y2="114.727" gradientUnits="userSpaceOnUse">
<stop stop-color="#E0BDF7"/>
<stop offset="1" stop-color="#8757B0"/>
</linearGradient>
<radialGradient id="paint13_radial_104_821" cx="0" cy="0" r="1" gradientUnits="userSpaceOnUse" gradientTransform="translate(120.72 99.3935) rotate(47.7722) scale(38.6614 28.023)">
<stop offset="0.1411" stop-color="#413655"/>
<stop offset="0.6961" stop-color="#BFBBC5" stop-opacity="0.3539"/>
<stop offset="1" stop-color="white" stop-opacity="0"/>
</radialGradient>
<linearGradient id="paint14_linear_104_821" x1="261.604" y1="-22.3743" x2="209.304" y2="78.8509" gradientUnits="userSpaceOnUse">
<stop stop-color="#FFE067"/>
<stop offset="1" stop-color="#FEC34A"/>
</linearGradient>
<linearGradient id="paint15_linear_104_821" x1="261.604" y1="-22.3743" x2="209.304" y2="78.8509" gradientUnits="userSpaceOnUse">
<stop stop-color="#FFE067"/>
<stop offset="1" stop-color="#FEC34A"/>
</linearGradient>
<radialGradient id="paint16_radial_104_821" cx="0" cy="0" r="1" gradientUnits="userSpaceOnUse" gradientTransform="translate(256.602 25.7515) scale(38.8623 38.8623)">
<stop offset="0.0981279" stop-color="#AC6C4B"/>
<stop offset="0.6454" stop-color="#E0C7BB" stop-opacity="0.3932"/>
<stop offset="1" stop-color="white" stop-opacity="0"/>
</radialGradient>
<linearGradient id="paint17_linear_104_821" x1="190.782" y1="56.4804" x2="173.11" y2="44.1183" gradientUnits="userSpaceOnUse">
<stop stop-color="#FE893E"/>
<stop offset="1" stop-color="#FFAD44"/>
</linearGradient>
<radialGradient id="paint18_radial_104_821" cx="0" cy="0" r="1" gradientUnits="userSpaceOnUse" gradientTransform="translate(120.189 64.7856) rotate(-11.8291) scale(45.8462)">
<stop stop-color="#FFDA69"/>
<stop offset="0.1782" stop-color="#FFCE72"/>
<stop offset="0.3493" stop-color="#FFC876"/>
<stop offset="0.3567" stop-color="#FFC775"/>
<stop offset="0.66" stop-color="#FB9942"/>
<stop offset="0.8094" stop-color="#FA872F"/>
<stop offset="1" stop-color="#FFA15F"/>
</radialGradient>
<radialGradient id="paint19_radial_104_821" cx="0" cy="0" r="1" gradientUnits="userSpaceOnUse" gradientTransform="translate(121.714 64.7496) rotate(-11.8291) scale(50.9927)">
<stop stop-color="#FFFFFB"/>
<stop offset="0.0627567" stop-color="#FFFCE4" stop-opacity="0.9372"/>
<stop offset="0.1702" stop-color="#FFF9C4" stop-opacity="0.8298"/>
<stop offset="0.2866" stop-color="#FFF5A9" stop-opacity="0.7134"/>
<stop offset="0.4134" stop-color="#FFF395" stop-opacity="0.5866"/>
<stop offset="0.5557" stop-color="#FFF186" stop-opacity="0.4443"/>
<stop offset="0.7262" stop-color="#FFF07E" stop-opacity="0.2738"/>
<stop offset="1" stop-color="#FFF07B" stop-opacity="0"/>
</radialGradient>
<linearGradient id="paint20_linear_104_821" x1="125.898" y1="-38.4434" x2="181.035" y2="15.5738" gradientUnits="userSpaceOnUse">
<stop stop-color="#BF97DE"/>
<stop offset="0.4147" stop-color="#E0BDF7"/>
<stop offset="1" stop-color="#8757B0"/>
</linearGradient>
<linearGradient id="paint21_linear_104_821" x1="171.724" y1="-18.0811" x2="33.8255" y2="-58.8752" gradientUnits="userSpaceOnUse">
<stop stop-color="#E0BDF7"/>
<stop offset="1" stop-color="#8757B0"/>
</linearGradient>
<radialGradient id="paint22_radial_104_821" cx="0" cy="0" r="1" gradientUnits="userSpaceOnUse" gradientTransform="translate(146.621 -35.3892) rotate(45) scale(40.3246 17.6445)">
<stop stop-color="#413655"/>
<stop offset="0.6461" stop-color="#BFBBC5" stop-opacity="0.3539"/>
<stop offset="1" stop-color="white" stop-opacity="0"/>
</radialGradient>
<clipPath id="clip0_104_821">
<rect width="387.436" height="304" fill="white" transform="translate(0 -132)"/>
</clipPath>
</defs>
<g clip-path="url(#clip0_104_821)">
<path d="M100.577 0.590711C104.03 0.590711 106.828 -2.20814 106.828 -5.6607C106.828 -9.11325 104.03 -11.9121 100.577 -11.9121C97.1245 -11.9121 94.3257 -9.11325 94.3257 -5.6607C94.3257 -2.20814 97.1245 0.590711 100.577 0.590711Z" fill="url(#paint0_linear_104_821)"/>
<path d="M54.5486 85.892C54.5486 102.378 67.9085 115.788 84.4444 115.788V55.9961C67.9589 55.9961 54.5486 69.4064 54.5486 85.892Z" fill="url(#paint1_linear_104_821)"/>
<path d="M164.301 113.771H162.234V115.838H164.301V113.771Z" fill="url(#paint2_linear_104_821)"/>
<path d="M164.301 121.232H162.234V123.299H164.301V121.232Z" fill="url(#paint3_linear_104_821)"/>
<path d="M28.3833 116.796V114.225H24.7535V110.595H22.1319V114.225H18.5021V116.796H22.1319V120.426H24.7535V116.796H28.3833Z" fill="url(#paint4_linear_104_821)"/>
<path d="M45.0202 116.796H48.6501V114.225H45.0202V110.595H42.4491V114.225H38.7688V116.796H42.4491V120.426H45.0202V116.796Z" fill="url(#paint5_linear_104_821)"/>
<path d="M117.768 17.7812L104.056 63.0031C103.703 64.2635 106.476 66.1793 110.257 67.3388C114.038 68.4983 117.416 68.3975 117.819 67.1875L131.532 21.9657L117.768 17.7812Z" fill="url(#paint6_linear_104_821)"/>
<path d="M131.532 21.9659C131.179 23.2263 127.751 23.2767 123.97 22.1172C120.188 20.9577 117.416 19.0419 117.769 17.7815C118.121 16.5212 121.55 16.4708 125.331 17.6303C129.162 18.7394 131.935 20.7056 131.532 21.9659Z" fill="url(#paint7_linear_104_821)"/>
<path d="M68.5133 20.7057L18.8549 1.19531L-0.00012207 45.1064L68.5133 20.7057ZM9.67948 36.9897L21.8294 8.40459L53.8931 21.1595L51.2715 21.714L11.4944 36.3343L9.67948 36.9897Z" fill="url(#paint8_linear_104_821)"/>
<path d="M21.7287 11.9333L48.65 22.6716L53.8932 21.1592L21.8295 8.4043L9.67957 36.9894L11.5449 36.334L21.7287 11.9333Z" fill="url(#paint9_linear_104_821)"/>
<path d="M68.2612 26.05L68.5133 20.7061L-0.00012207 45.1067L0.604853 50.5011L68.2612 26.05Z" fill="url(#paint10_linear_104_821)"/>
<path d="M80.5119 134.088L114.441 130.559L62.2114 78.5312L80.5119 134.088Z" fill="url(#paint11_linear_104_821)"/>
<path d="M114.441 130.559L120.44 88.9167L62.2114 78.5312L114.441 130.559Z" fill="url(#paint12_linear_104_821)"/>
<path d="M114.441 130.559L120.44 88.9167L62.2114 78.5312L114.441 130.559Z" fill="url(#paint13_radial_104_821)"/>
<path d="M192.433 40.5688L169.091 35.7794L271.382 -1.12402L294.774 3.66536L192.433 40.5688Z" fill="url(#paint14_linear_104_821)"/>
<path d="M192.433 40.5688L169.091 35.7794L271.382 -1.12402L294.774 3.66536L192.433 40.5688Z" fill="url(#paint15_linear_104_821)"/>
<path d="M192.433 40.5688L169.091 35.7794L271.382 -1.12402L294.774 3.66536L192.433 40.5688Z" fill="url(#paint16_radial_104_821)"/>
<path d="M180.837 68.1455L169.091 35.7793L192.433 40.5687L180.837 68.1455Z" fill="url(#paint17_linear_104_821)"/>
<mask id="mask0_104_821" style="mask-type:luminance" maskUnits="userSpaceOnUse" x="97" y="43" width="63" height="63">
<path d="M134.589 105.056C151.295 101.557 162.002 85.1779 158.503 68.4718C155.004 51.7658 138.625 41.0593 121.919 44.5582C105.212 48.0571 94.506 64.4365 98.0049 81.1425C101.504 97.8486 117.883 108.555 134.589 105.056Z" fill="white"/>
</mask>
<g mask="url(#mask0_104_821)">
<path d="M128.255 105.705C145.323 105.705 159.159 91.8685 159.159 74.8006C159.159 57.7327 145.323 43.8965 128.255 43.8965C111.187 43.8965 97.3506 57.7327 97.3506 74.8006C97.3506 91.8685 111.187 105.705 128.255 105.705Z" fill="url(#paint18_radial_104_821)"/>
</g>
<mask id="mask1_104_821" style="mask-type:luminance" maskUnits="userSpaceOnUse" x="97" y="43" width="63" height="63">
<path d="M134.589 105.056C151.295 101.557 162.002 85.1779 158.503 68.4718C155.004 51.7658 138.625 41.0593 121.919 44.5582C105.212 48.0571 94.506 64.4365 98.0049 81.1425C101.504 97.8486 117.883 108.555 134.589 105.056Z" fill="white"/>
</mask>
<g mask="url(#mask1_104_821)">
<path d="M128.255 105.705C145.323 105.705 159.159 91.8685 159.159 74.8006C159.159 57.7327 145.323 43.8965 128.255 43.8965C111.187 43.8965 97.3506 57.7327 97.3506 74.8006C97.3506 91.8685 111.187 105.705 128.255 105.705Z" fill="url(#paint19_radial_104_821)"/>
</g>
<path d="M135.565 -47.9092L125.381 -37.7254C120.592 -32.936 128.86 -16.9042 143.883 -1.93108C158.856 13.0421 174.888 21.3101 179.678 16.5711L189.861 6.38733L135.565 -47.9092Z" fill="url(#paint20_linear_104_821)"/>
<path d="M189.861 6.38721C185.072 11.1766 169.04 2.90861 154.067 -12.1149C139.094 -27.0881 130.826 -43.1199 135.565 -47.9093C140.354 -52.6987 156.386 -44.4307 171.359 -29.4071C186.332 -14.434 194.6 1.59783 189.861 6.38721Z" fill="url(#paint21_linear_104_821)"/>
<path d="M189.861 6.38721C185.072 11.1766 169.04 2.90861 154.067 -12.1149C139.094 -27.0881 130.826 -43.1199 135.565 -47.9093C140.354 -52.6987 156.386 -44.4307 171.359 -29.4071C186.332 -14.434 194.6 1.59783 189.861 6.38721Z" fill="url(#paint22_radial_104_821)"/>
</g>

</svg>
