<svg width="14" height="16" viewBox="0 0 14 16" fill="none" xmlns="http://www.w3.org/2000/svg">
<defs>
<linearGradient id="paint0_linear_283_88" x1="0" y1="11.5556" x2="13.3824" y2="11.5556" gradientUnits="userSpaceOnUse">
<stop stop-color="#FF9811"/>
<stop offset="1" stop-color="#FF2E11"/>
</linearGradient>
</defs>
<path d="M12.9257 16C12.6496 16 12.3858 15.893 12.184 15.6985L7.00025 10.6525L1.81798 15.6965C1.50694 15.9965 1.03793 16.082 0.649629 15.9095C0.256899 15.741 0 15.347 0 14.9075V1.092C0 0.49 0.4823 0 1.07484 0H12.9252C13.5177 0 14 0.49 14 1.092V14.908C14 15.347 13.7436 15.741 13.3464 15.912C13.214 15.97 13.0713 16 12.9257 16Z" fill="url(#paint0_linear_283_88)"/>
<path d="M12.9257 16C12.6496 16 12.3858 15.893 12.184 15.6985L7.00025 10.6525L1.81798 15.6965C1.50694 15.9965 1.03793 16.082 0.649629 15.9095C0.256899 15.741 0 15.347 0 14.9075V1.092C0 0.49 0.4823 0 1.07484 0H12.9252C13.5177 0 14 0.49 14 1.092V14.908C14 15.347 13.7436 15.741 13.3464 15.912C13.214 15.97 13.0713 16 12.9257 16Z" fill="#A1C415"/>

</svg>
