<svg width="40" height="40" viewBox="0 0 40 40" fill="none" xmlns="http://www.w3.org/2000/svg">
<path d="M8.33333 3.33398C6.49233 3.33398 5 4.83398 5 6.66732V20.0007V26.6673V36.6673C5 38.5007 6.49233 40.0007 8.33333 40.0007H31.6667C33.5083 40.0007 35 38.5007 35 36.6673V26.6673V20.0007V13.334L25 3.33398H8.33333Z" fill="#A0A8C1"/>
<path d="M8.33333 1.66699C6.49233 1.66699 5 3.16699 5 5.00033V18.3337V25.0003V35.0003C5 36.8337 6.49233 38.3337 8.33333 38.3337H31.6667C33.5083 38.3337 35 36.8337 35 35.0003V25.0003V18.3337V11.667L25 1.66699H8.33333Z" fill="#EBEEF8"/>
<path d="M35 11.667L25 1.66699V8.33366C25 10.167 26.4917 11.667 28.3333 11.667H35Z" fill="#A0A8C1"/>
<rect x="11" y="17" width="17" height="2" fill="#A0A8C1"/>
<rect x="11" y="22" width="17" height="2" fill="#A0A8C1"/>
<rect x="11" y="27" width="17" height="2" fill="#A0A8C1"/>
</svg>
