<svg width="46" height="46" viewBox="0 0 46 46" fill="none" xmlns="http://www.w3.org/2000/svg">
<rect width="46" height="46" rx="23" fill="#3E518D"/>
<path d="M33.2087 28.8604L31.7781 23.5383V20.5293C32.1425 20.4484 32.4643 20.2357 32.6817 19.9322C32.8991 19.6287 32.9968 19.2556 32.9562 18.8844C32.9155 18.5133 32.7393 18.1702 32.4614 17.921C32.1834 17.6717 31.8233 17.5337 31.4499 17.5336C29.6452 17.5598 29.3827 20.1225 31.1218 20.5293V23.1543L26.3509 21.8714L25.3665 18.262C25.5939 18.1423 25.79 17.9709 25.939 17.7615C26.088 17.5522 26.1857 17.3107 26.2243 17.0567C26.2629 16.8027 26.2413 16.5431 26.1612 16.2989C26.0811 16.0548 25.9448 15.8328 25.7632 15.651C25.5817 15.4692 25.3599 15.3325 25.1159 15.2521C24.8719 15.1716 24.6123 15.1496 24.3582 15.1879C24.1041 15.2261 23.8626 15.3235 23.653 15.4722C23.4434 15.6208 23.2717 15.8167 23.1517 16.0439L19.3618 15.0136C19.3045 14.9966 19.2437 14.9955 19.1859 15.0106C19.1281 15.0256 19.0754 15.0561 19.0337 15.0989L15.0962 19.0364C15.0554 19.0794 15.0262 19.1321 15.0113 19.1895C14.9964 19.2468 14.9962 19.3071 15.0109 19.3645L16.4612 24.667V27.3642C16.0967 27.4452 15.775 27.6578 15.5576 27.9613C15.3402 28.2649 15.2424 28.638 15.2831 29.0091C15.3237 29.3802 15.4999 29.7233 15.7779 29.9726C16.0558 30.2219 16.416 30.3598 16.7893 30.36C18.594 30.3337 18.8565 27.7678 17.1174 27.3642V25.0673L20.5824 25.9959C20.5754 26.2193 20.6134 26.4418 20.6943 26.6502C20.7751 26.8586 20.8971 27.0485 21.053 27.2087C21.2089 27.3689 21.3955 27.496 21.6016 27.5825C21.8077 27.6689 22.0291 27.713 22.2526 27.712L23.2763 31.5183C23.2912 31.5742 23.3206 31.6252 23.3615 31.6661C23.4024 31.707 23.4534 31.7364 23.5093 31.7512L28.8774 33.1917C28.9368 33.213 29.0018 33.213 29.0612 33.1917C29.1087 33.1738 29.153 33.1483 29.1924 33.1162L33.1299 29.1787C33.1698 29.1372 33.1981 29.086 33.2119 29.0301C33.2257 28.9743 33.2246 28.9157 33.2087 28.8604ZM30.5837 19.0495C30.5972 18.8303 30.6939 18.6244 30.8539 18.474C31.0139 18.3235 31.2253 18.2397 31.445 18.2397C31.6647 18.2397 31.8761 18.3235 32.0361 18.474C32.1962 18.6244 32.2928 18.8303 32.3063 19.0495C32.2836 19.2612 32.1834 19.4571 32.025 19.5994C31.8667 19.7417 31.6612 19.8204 31.4483 19.8204C31.2354 19.8204 31.0299 19.7417 30.8715 19.5994C30.7131 19.4571 30.613 19.2612 30.5902 19.0495H30.5837ZM24.6446 15.7683C24.8099 15.7678 24.9728 15.8083 25.1187 15.8859C25.2646 15.9635 25.3891 16.076 25.4811 16.2133C25.5732 16.3506 25.6299 16.5085 25.6462 16.673C25.6626 16.8375 25.638 17.0035 25.5748 17.1562C25.5116 17.309 25.4117 17.4437 25.2839 17.5486C25.1561 17.6534 25.0044 17.7251 24.8423 17.7572C24.6801 17.7894 24.5126 17.781 24.3545 17.7328C24.1963 17.6846 24.0526 17.5981 23.9359 17.4811C23.799 17.3395 23.7065 17.161 23.6697 16.9676C23.6329 16.7742 23.6534 16.5742 23.7287 16.3923C23.804 16.2104 23.9308 16.0544 24.0935 15.9435C24.2562 15.8327 24.4478 15.7717 24.6446 15.7683ZM17.649 28.8408C17.6355 29.06 17.5388 29.2658 17.3788 29.4163C17.2187 29.5668 17.0073 29.6505 16.7877 29.6505C16.568 29.6505 16.3566 29.5668 16.1966 29.4163C16.0365 29.2658 15.9399 29.06 15.9263 28.8408C15.9399 28.6215 16.0365 28.4157 16.1966 28.2652C16.3566 28.1147 16.568 28.031 16.7877 28.031C17.0073 28.031 17.2187 28.1147 17.3788 28.2652C17.5388 28.4157 17.6355 28.6215 17.649 28.8408ZM17.0584 24.3618L15.7754 19.5876H18.2462C18.3272 19.9521 18.5398 20.2738 18.8433 20.4912C19.1469 20.7086 19.5199 20.8064 19.8911 20.7657C20.2622 20.7251 20.6053 20.5489 20.8546 20.271C21.1038 19.993 21.2418 19.6329 21.242 19.2595C21.2157 17.4548 18.6531 17.1923 18.2462 18.9314H16.1396L19.3749 15.6961L22.9843 16.6804C22.9678 16.9145 23.0017 17.1494 23.0837 17.3692C23.1657 17.5891 23.2939 17.7888 23.4597 17.9549C23.6255 18.1209 23.8249 18.2495 24.0446 18.3319C24.2643 18.4144 24.4991 18.4487 24.7332 18.4326L25.7176 22.042L23.1352 24.6375C22.9356 24.5122 22.7115 24.4309 22.478 24.399C22.2444 24.3671 22.0068 24.3852 21.7808 24.4523C21.5548 24.5193 21.3457 24.6337 21.1674 24.7879C20.989 24.942 20.8456 25.1323 20.7465 25.3462L17.0584 24.3618ZM18.8696 19.2595C18.8696 19.0315 18.9602 18.8128 19.1214 18.6516C19.2826 18.4904 19.5013 18.3998 19.7293 18.3998C19.9573 18.3998 20.176 18.4904 20.3372 18.6516C20.4984 18.8128 20.589 19.0315 20.589 19.2595C20.589 19.4875 20.4984 19.7062 20.3372 19.8674C20.176 20.0286 19.9573 20.1192 19.7293 20.1192C19.5013 20.1192 19.2826 20.0286 19.1214 19.8674C18.9602 19.7062 18.8696 19.4875 18.8696 19.2595ZM21.5274 25.3298C21.7158 25.1414 21.9714 25.0356 22.2378 25.0356C22.5043 25.0356 22.7598 25.1414 22.9482 25.3298C23.1366 25.5182 23.2425 25.7738 23.2425 26.0402C23.2425 26.3067 23.1366 26.5622 22.9482 26.7506C22.7598 26.9394 22.5041 27.0457 22.2373 27.046C21.9706 27.0463 21.7146 26.9406 21.5258 26.7522C21.337 26.5638 21.2307 26.3081 21.2304 26.0414C21.2301 25.7746 21.3357 25.5187 21.5242 25.3298H21.5274ZM29.1465 32.2204L28.5493 29.7792C28.8861 29.6671 29.1729 29.4403 29.3596 29.1385C29.5464 28.8366 29.6213 28.4788 29.5713 28.1274C29.5213 27.776 29.3496 27.4533 29.0861 27.2154C28.8226 26.9776 28.484 26.8398 28.1293 26.8261C26.2754 26.8589 26.072 29.5134 27.8865 29.835L28.5132 32.4272L23.8604 31.1639L22.8957 27.5545C23.1196 27.4553 23.3188 27.3081 23.4793 27.1232C23.6398 26.9383 23.7575 26.7203 23.8243 26.4848C23.891 26.2492 23.905 26.0019 23.8653 25.7603C23.8256 25.5187 23.7332 25.2888 23.5946 25.087L26.1802 22.5014L31.1809 23.8401L32.5262 28.844L29.1465 32.2204ZM28.1326 29.1853C27.9133 29.1717 27.7075 29.0751 27.557 28.9151C27.4066 28.755 27.3228 28.5436 27.3228 28.324C27.3228 28.1043 27.4066 27.8929 27.557 27.7328C27.7075 27.5728 27.9133 27.4762 28.1326 27.4626C28.3619 27.4631 28.5816 27.5546 28.7435 27.717C28.9053 27.8795 28.996 28.0996 28.9956 28.3289C28.9951 28.5582 28.9036 28.7779 28.7412 28.9398C28.5787 29.1016 28.3586 29.1923 28.1293 29.1918L28.1326 29.1853Z" fill="#F3F4F8"/>
</svg>
