<svg width="40" height="40" viewBox="0 0 40 40" fill="none" xmlns="http://www.w3.org/2000/svg">
<path d="M8.33333 3.33398C6.49233 3.33398 5 4.83398 5 6.66732V20.0007V26.6673V36.6673C5 38.5007 6.49233 40.0007 8.33333 40.0007H31.6667C33.5083 40.0007 35 38.5007 35 36.6673V26.6673V20.0007V13.334L25 3.33398H8.33333Z" fill="#A0A8C1"/>
<path d="M8.33333 1.66699C6.49233 1.66699 5 3.16699 5 5.00033V18.3337V25.0003V35.0003C5 36.8337 6.49233 38.3337 8.33333 38.3337H31.6667C33.5083 38.3337 35 36.8337 35 35.0003V25.0003V18.3337V11.667L25 1.66699H8.33333Z" fill="white"/>
<path d="M35 11.667L25 1.66699V8.33366C25 10.167 26.4917 11.667 28.3333 11.667H35Z" fill="#A0A8C1"/>
<path d="M15.1305 24.8288L13.1707 22.8832C13.0609 22.7733 12.9995 22.6246 13 22.4698C13.0006 22.315 13.063 22.1667 13.1737 22.0576C13.2843 21.9485 13.4341 21.8876 13.5901 21.8881C13.746 21.8887 13.8953 21.9507 14.0052 22.0605L15.2539 23.3003L16.6261 18.4288C16.6599 18.3065 16.733 18.1984 16.8343 18.1211C16.9356 18.0437 17.0595 18.0012 17.1873 18H24.4124C24.5682 18 24.7177 18.0615 24.8279 18.1709C24.9381 18.2803 25 18.4287 25 18.5834C25 18.7381 24.9381 18.8865 24.8279 18.9959C24.7177 19.1054 24.5682 19.1668 24.4124 19.1668H17.6339L16.1119 24.5751C16.0841 24.673 16.0309 24.762 15.9576 24.8333C15.8844 24.9045 15.7937 24.9555 15.6945 24.9812C15.5953 25.0068 15.491 25.0063 15.3921 24.9795C15.2931 24.9528 15.203 24.9009 15.1305 24.8288Z" fill="#A0A8C1"/>
<path d="M21.6886 22.4693L23.2371 20.9174C23.3473 20.8079 23.4093 20.6595 23.4093 20.5046C23.4093 20.3498 23.3473 20.2013 23.2371 20.0919C23.1268 19.9824 22.9772 19.9209 22.8213 19.9209C22.6654 19.9209 22.5158 19.9824 22.4055 20.0919L20.8571 21.6292L19.3087 20.0919C19.1984 19.9824 19.0488 19.9209 18.8929 19.9209C18.737 19.9209 18.5874 19.9824 18.4771 20.0919C18.3669 20.2013 18.3049 20.3498 18.3049 20.5046C18.3049 20.6595 18.3669 20.8079 18.4771 20.9174L20.0256 22.4547L18.4771 23.992C18.3669 24.1015 18.3049 24.2499 18.3049 24.4047C18.3049 24.5596 18.3669 24.708 18.4771 24.8175C18.5874 24.927 18.737 24.9885 18.8929 24.9885C19.0488 24.9885 19.1984 24.927 19.3087 24.8175L20.8571 23.2802L22.4055 24.8175C22.5158 24.927 22.6654 24.9885 22.8213 24.9885C22.9772 24.9885 23.1268 24.927 23.2371 24.8175C23.3473 24.708 23.4093 24.5596 23.4093 24.4047C23.4093 24.2499 23.3473 24.1015 23.2371 23.992L21.6886 22.4693Z" fill="#A0A8C1"/>
</svg>
