<svg width="46" height="46" viewBox="0 0 46 46" fill="none" xmlns="http://www.w3.org/2000/svg">
<rect width="46" height="46" rx="23" fill="#3E518D"/>
<path d="M33.3921 21.7337L23.3922 14.461C23.1582 14.2903 22.8415 14.2903 22.6075 14.461L12.6076 21.7337C12.3103 21.9497 12.2443 22.367 12.4609 22.6643C12.6776 22.9623 13.0936 23.027 13.3923 22.8117L14.7083 21.8543V30.9997C14.7083 31.3683 15.0069 31.6663 15.3749 31.6663H20.7582C21.1262 31.6663 21.4249 31.3683 21.4249 30.9997V24.7377H24.5748V30.9997C24.5748 31.3683 24.8735 31.6663 25.2415 31.6663H30.6248C30.9928 31.6663 31.2914 31.3683 31.2914 30.9997V21.855L32.6074 22.8123C32.7261 22.8983 32.8634 22.9397 32.9988 22.9397C33.2048 22.9397 33.4081 22.8443 33.5388 22.665C33.7561 22.3677 33.6894 21.9503 33.3921 21.7337ZM29.9581 30.3337H25.9082V24.0717C25.9082 23.703 25.6095 23.405 25.2415 23.405H20.7582C20.3902 23.405 20.0915 23.703 20.0915 24.0717V30.3337H16.0416V20.885L23.0002 15.8243L29.9588 20.885V30.3337H29.9581Z" fill="#F3F4F8"/>
</svg>
