<svg width="24" height="24" viewBox="0 0 24 24" fill="none" xmlns="http://www.w3.org/2000/svg">
<path d="M15.1349 3.67511C15.0403 3.64026 14.9396 3.62485 14.8389 3.62981C14.7382 3.63478 14.6395 3.66 14.5487 3.70398C14.458 3.74797 14.377 3.80978 14.3107 3.8858C14.2444 3.96177 14.1941 4.05035 14.1628 4.14623C14.1315 4.24212 14.1199 4.34333 14.1286 4.4438C14.1373 4.54426 14.1662 4.64195 14.2136 4.73101C14.2609 4.82007 14.3257 4.89863 14.4041 4.96205C14.4826 5.0255 14.573 5.07245 14.6699 5.10012C16.5984 5.73496 18.2375 7.03617 19.2934 8.77032C20.3491 10.5045 20.7525 12.5581 20.431 14.5627C20.1095 16.5674 19.0843 18.3919 17.5391 19.709C15.9941 21.026 14.0302 21.7494 11.9999 21.7494C9.96969 21.7494 8.00585 21.026 6.46078 19.709C4.91567 18.3919 3.89041 16.5674 3.56893 14.5627C3.24745 12.5581 3.65078 10.5045 4.70656 8.77032C5.76234 7.03617 7.4015 5.73496 9.32994 5.10012C9.42695 5.07245 9.51733 5.0255 9.59574 4.96205C9.67419 4.89863 9.73899 4.82007 9.78635 4.73101C9.83368 4.64195 9.86259 4.54426 9.87133 4.4438C9.88006 4.34333 9.8684 4.24212 9.83713 4.14623C9.80585 4.05035 9.75553 3.96177 9.68923 3.8858C9.62293 3.80978 9.54196 3.74797 9.45121 3.70398C9.36046 3.66 9.26176 3.63478 9.16104 3.62981C9.06028 3.62485 8.95959 3.64026 8.86494 3.67511C6.59705 4.42062 4.6691 5.94998 3.427 7.98867C2.1849 10.0274 1.71 12.442 2.08752 14.7993C2.46503 17.1565 3.67024 19.3021 5.48686 20.8509C7.30351 22.3998 9.61265 23.2505 11.9999 23.2505C14.3872 23.2505 16.6964 22.3998 18.513 20.8509C20.3297 19.3021 21.5349 17.1565 21.9124 14.7993C22.2899 12.442 21.815 10.0274 20.5729 7.98867C19.3308 5.94998 17.4028 4.42062 15.1349 3.67511Z" fill="#3E518D"/>
<path d="M12 9.3975C12.1989 9.3975 12.3897 9.31849 12.5303 9.17782C12.671 9.03716 12.75 8.8464 12.75 8.6475V1.5C12.75 1.30109 12.671 1.11032 12.5303 0.969671C12.3897 0.829016 12.1989 0.75 12 0.75C11.8011 0.75 11.6103 0.829016 11.4697 0.969671C11.329 1.11032 11.25 1.30109 11.25 1.5V8.6475C11.25 8.8464 11.329 9.03716 11.4697 9.17782C11.6103 9.31849 11.8011 9.3975 12 9.3975Z" fill="#3E518D"/>
</svg>
