<svg width="34" height="34" viewBox="0 0 34 34" fill="none" xmlns="http://www.w3.org/2000/svg">
<defs>
<linearGradient id="paint0_linear_104_974" x1="1" y1="12.5555" x2="16.2941" y2="12.5555" gradientUnits="userSpaceOnUse">
<stop stop-color="#FF9811"/>
<stop offset="1" stop-color="#FF2E11"/>
</linearGradient>
<linearGradient id="paint1_linear_104_974" x1="33" y1="21.4445" x2="17.7059" y2="21.4445" gradientUnits="userSpaceOnUse">
<stop stop-color="#FF9811"/>
<stop offset="1" stop-color="#FF2E11"/>
</linearGradient>
</defs>
<path d="M1 16.7015L0.701495 16.7015L0.701495 17L0.701493 29.5373C0.701493 31.6146 2.38543 33.2985 4.46268 33.2985L17 33.2985L17.2985 33.2985L17.2985 33L17.2985 17L17.2985 16.7015L17 16.7015L1 16.7015Z" fill="#3E518D" stroke="white" stroke-width="0.597014"/>
<path d="M17.2985 1V0.701493H17H4.46268C2.38544 0.701493 0.701493 2.38543 0.701493 4.46268V17V17.2985H1H17H17.2985V17V1Z" fill="url(#paint0_linear_104_974)"/>
<path d="M17.2985 1V0.701493H17H4.46268C2.38544 0.701493 0.701493 2.38543 0.701493 4.46268V17V17.2985H1H17H17.2985V17V1Z" fill="#A1C415"/>
<path d="M17.2985 1V0.701493H17H4.46268C2.38544 0.701493 0.701493 2.38543 0.701493 4.46268V17V17.2985H1H17H17.2985V17V1Z" stroke="white" stroke-width="0.597014"/>
<path d="M16.7015 33L16.7015 33.2985L17 33.2985L29.5373 33.2985C31.6146 33.2985 33.2985 31.6146 33.2985 29.5373L33.2985 17L33.2985 16.7015L33 16.7015L17 16.7015L16.7015 16.7015L16.7015 17L16.7015 33Z" fill="url(#paint1_linear_104_974)"/>
<path d="M16.7015 33L16.7015 33.2985L17 33.2985L29.5373 33.2985C31.6146 33.2985 33.2985 31.6146 33.2985 29.5373L33.2985 17L33.2985 16.7015L33 16.7015L17 16.7015L16.7015 16.7015L16.7015 17L16.7015 33Z" fill="#A1C415"/>
<path d="M16.7015 33L16.7015 33.2985L17 33.2985L29.5373 33.2985C31.6146 33.2985 33.2985 31.6146 33.2985 29.5373L33.2985 17L33.2985 16.7015L33 16.7015L17 16.7015L16.7015 16.7015L16.7015 17L16.7015 33Z" stroke="white" stroke-width="0.597014"/>
<path d="M33 17.2985L33.2985 17.2985L33.2985 17L33.2985 4.46268C33.2985 2.38544 31.6146 0.701493 29.5373 0.701493L17 0.701492L16.7015 0.701492L16.7015 0.999999L16.7015 17L16.7015 17.2985L17 17.2985L33 17.2985Z" fill="#3E518D" stroke="white" stroke-width="0.597014"/>
<rect x="25" y="9" width="16" height="16" rx="2.38806" transform="rotate(90 25 9)" fill="white"/>
<path d="M11.3888 20.6547C11.4022 20.5857 11.41 20.5153 11.4306 20.4485C11.5263 20.1454 11.7313 19.9708 12.0433 19.9284C12.1901 19.9083 12.3354 19.9134 12.4758 19.9679C12.6162 20.0233 12.7198 20.1238 12.8056 20.2459C12.9318 20.4255 13.0169 20.6259 13.0963 20.83C13.1247 20.9032 13.1523 20.9772 13.1779 21.0512C13.1857 21.0742 13.197 21.0785 13.2197 21.0771C13.3317 21.0692 13.4147 21.011 13.48 20.9226C13.5658 20.8084 13.6225 20.6784 13.6735 20.5455C13.7877 20.2467 13.8728 19.9385 13.9416 19.626C14.0487 19.1376 14.1529 18.6484 14.2472 18.157C14.3437 17.6528 14.4266 17.1463 14.516 16.6406C14.5167 16.6363 14.516 16.6313 14.516 16.6234C14.1026 16.6234 13.6906 16.6234 13.2743 16.6234C13.2857 16.5659 13.2963 16.5128 13.3069 16.4589C13.3445 16.275 13.3828 16.0918 13.419 15.9079C13.4253 15.877 13.4353 15.8655 13.4686 15.8655C13.848 15.867 14.2274 15.8663 14.6067 15.867C14.6379 15.867 14.6507 15.8605 14.6564 15.826C14.6982 15.5839 14.7386 15.3411 14.7883 15.1005C14.8755 14.6796 15.0003 14.2708 15.1918 13.8851C15.352 13.5618 15.5534 13.2688 15.8229 13.0281C16.1207 12.7616 16.466 12.5921 16.8553 12.5152C17.1234 12.4621 17.3943 12.4477 17.6659 12.48C17.8729 12.5044 18.0722 12.5583 18.2424 12.6876C18.4601 12.8521 18.5742 13.0734 18.5487 13.3478C18.5211 13.6459 18.3913 13.8937 18.1048 14.0137C17.7666 14.1552 17.4368 14.0948 17.1815 13.8039C17.0312 13.6322 16.9298 13.4325 16.849 13.2206C16.8128 13.1251 16.7802 13.0281 16.744 12.9275C16.6972 12.9563 16.6639 12.9972 16.6334 13.041C16.5497 13.1632 16.4972 13.3004 16.4526 13.4404C16.359 13.7349 16.3001 14.0367 16.2533 14.3412C16.2079 14.6379 16.1675 14.9346 16.1278 15.232C16.1001 15.4367 16.0774 15.6421 16.0526 15.8476C16.0519 15.8519 16.0526 15.8569 16.0526 15.867C16.4894 15.867 16.9263 15.867 17.3659 15.867C17.3134 16.1227 17.2624 16.3727 17.2113 16.6234C16.7851 16.6234 16.3625 16.6234 15.9363 16.6234C15.9214 16.7125 15.9065 16.8008 15.8917 16.8884C15.842 17.1851 15.798 17.4832 15.7427 17.7792C15.6768 18.1326 15.608 18.4853 15.5279 18.8351C15.4265 19.2783 15.2861 19.7086 15.0755 20.1123C14.8868 20.4729 14.6443 20.7883 14.316 21.0311C14.0309 21.2416 13.7125 21.3737 13.37 21.4506C13.1644 21.4966 12.9559 21.5224 12.746 21.5318C12.7333 21.5325 12.7205 21.5354 12.7077 21.5375C12.6035 21.5375 12.5 21.5375 12.3957 21.5375C12.383 21.5354 12.3702 21.5318 12.3574 21.5303C12.2007 21.5188 12.049 21.4865 11.905 21.4219C11.6859 21.3234 11.5157 21.1733 11.4363 20.9377C11.4108 20.863 11.4037 20.7818 11.3881 20.7042C11.3888 20.6884 11.3888 20.6712 11.3888 20.6547Z" fill="#434D5E"/>
<path d="M17.8395 18.0234C17.8653 17.9139 17.8889 17.8108 17.914 17.7085C17.9161 17.6991 17.9276 17.689 17.9369 17.6846C18.2062 17.5613 18.4762 17.4415 18.7692 17.3842C18.9683 17.345 19.166 17.3494 19.3608 17.4045C19.6001 17.472 19.7577 17.6345 19.8629 17.8558C19.9539 18.0474 20.0048 18.252 20.0506 18.458C20.0642 18.519 20.0764 18.5799 20.0907 18.6496C20.1165 18.6133 20.1387 18.5843 20.158 18.5531C20.2784 18.3608 20.3958 18.1656 20.519 17.9748C20.6308 17.8021 20.7568 17.6418 20.9223 17.5177C21.0777 17.4024 21.2489 17.34 21.4445 17.3639C21.6679 17.3907 21.8083 17.5213 21.8671 17.7354C21.9265 17.9516 21.8943 18.1584 21.7582 18.3398C21.6479 18.4863 21.4932 18.5611 21.317 18.5915C21.1608 18.6184 21.0083 18.5894 20.8571 18.5516C20.7755 18.5313 20.6945 18.5045 20.6143 18.4784C20.5921 18.4711 20.5763 18.4725 20.5613 18.4907C20.4582 18.6155 20.3536 18.7396 20.2519 18.8658C20.2225 18.9021 20.1845 18.9398 20.1767 18.9812C20.1688 19.0218 20.1953 19.069 20.2068 19.1132C20.2884 19.4267 20.3686 19.7408 20.4524 20.0535C20.4861 20.1805 20.5319 20.3038 20.5985 20.4178C20.6924 20.5788 20.8356 20.6507 21.0161 20.6601C21.1816 20.6688 21.337 20.6238 21.4903 20.5701C21.5018 20.5665 21.5125 20.5621 21.524 20.5578C21.5261 20.5571 21.529 20.5571 21.5361 20.5563C21.5225 20.6151 21.5089 20.6717 21.4953 20.7283C21.4903 20.7508 21.4796 20.7726 21.4788 20.795C21.4767 20.864 21.4373 20.8944 21.3771 20.9184C21.1279 21.02 20.8765 21.1121 20.6107 21.1556C20.413 21.1876 20.2161 21.1868 20.0212 21.1353C19.7584 21.0664 19.585 20.8944 19.4783 20.6463C19.4017 20.4671 19.3623 20.277 19.32 20.0876C19.3057 20.0245 19.2914 19.9621 19.2749 19.8903C19.204 20.0006 19.1388 20.105 19.0715 20.2066C18.9325 20.4163 18.7957 20.6267 18.651 20.832C18.5694 20.9474 18.4655 21.0439 18.3359 21.1049C18.1747 21.181 18.0057 21.2035 17.8345 21.1498C17.6432 21.0896 17.5437 20.9409 17.4942 20.753C17.4312 20.5106 17.5473 20.1181 17.8524 19.9781C17.9892 19.9149 18.1332 19.9055 18.28 19.9222C18.444 19.9411 18.6023 19.9846 18.757 20.0419C18.7792 20.0499 18.7943 20.0477 18.8093 20.0289C18.9339 19.8794 19.0593 19.7299 19.1832 19.5805C19.1911 19.5703 19.1954 19.5514 19.1925 19.5391C19.1008 19.1582 19.0027 18.7795 18.8752 18.4087C18.8458 18.3238 18.8093 18.2411 18.7692 18.1606C18.6854 17.9944 18.5436 17.924 18.3645 17.9153C18.2248 17.9088 18.0938 17.948 17.9613 17.985C17.9233 17.9966 17.8846 18.0096 17.8395 18.0234Z" fill="#434D5E"/>
<rect width="0.687237" height="4.72319" rx="0.343618" transform="matrix(1 0 0 -1 26.5161 10.6191)" fill="white"/>
<rect width="0.687237" height="4.72319" rx="0.343618" transform="matrix(-4.37114e-08 -1 -1 4.37114e-08 29.2213 8.60156)" fill="white"/>
<rect width="0.687237" height="4.72319" rx="0.343618" transform="matrix(0.707107 -0.707107 -0.707107 -0.707107 7.77368 10.1709)" fill="white"/>
<rect width="0.687237" height="4.72319" rx="0.343618" transform="matrix(-0.707107 -0.707107 -0.707107 0.707107 8.25952 6.83105)" fill="white"/>
<rect width="0.687237" height="4.72319" rx="0.343618" transform="matrix(-4.37114e-08 -1 -1 4.37114e-08 8.70825 27.8369)" fill="white"/>
<rect width="0.687237" height="4.72319" rx="0.343618" transform="matrix(-4.37114e-08 -1 -1 4.37114e-08 29.7233 27.8711)" fill="white"/>
<circle cx="0.549789" cy="0.549789" r="0.549789" transform="matrix(1 0 0 -1 26.8119 29.4707)" fill="white"/>
<circle cx="0.549789" cy="0.549789" r="0.549789" transform="matrix(1 0 0 -1 26.8119 26.6963)" fill="white"/>

</svg>
