<svg width="46" height="46" viewBox="0 0 46 46" fill="none" xmlns="http://www.w3.org/2000/svg">
<rect width="46" height="46" rx="23" fill="#3E518D"/>
<path d="M23 13.5938C20.506 13.5961 18.1148 14.5878 16.3513 16.3513C14.5878 18.1148 13.5961 20.506 13.5938 23C14.11 35.4775 31.89 35.4731 32.4062 23C32.4039 20.506 31.4122 18.1148 29.6487 16.3513C27.8852 14.5878 25.494 13.5961 23 13.5938ZM23 31.0938C20.8541 31.0914 18.7968 30.238 17.2794 28.7206C15.762 27.2032 14.9086 25.1459 14.9062 23C15.3438 12.2637 30.6562 12.2637 31.0938 23C31.0914 25.1459 30.238 27.2032 28.7206 28.7206C27.2032 30.238 25.1459 31.0914 23 31.0938Z" fill="#F3F4F8"/>
<path d="M23 17.2031C22.18 17.2043 21.3939 17.5305 20.8141 18.1104C20.2343 18.6902 19.908 19.4763 19.9069 20.2962C19.9069 20.4703 19.976 20.6372 20.0991 20.7603C20.2222 20.8834 20.3891 20.9525 20.5631 20.9525C20.7372 20.9525 20.9041 20.8834 21.0272 20.7603C21.1502 20.6372 21.2194 20.4703 21.2194 20.2962C21.2194 19.9441 21.3238 19.5998 21.5195 19.307C21.7151 19.0142 21.9932 18.7859 22.3186 18.6512C22.644 18.5164 23.002 18.4811 23.3474 18.5498C23.6928 18.6185 24.0101 18.7881 24.2591 19.0372C24.5081 19.2862 24.6777 19.6035 24.7464 19.9489C24.8151 20.2943 24.7799 20.6523 24.6451 20.9777C24.5103 21.303 24.2821 21.5811 23.9893 21.7768C23.6964 21.9724 23.3522 22.0769 23 22.0769C22.826 22.0769 22.659 22.146 22.536 22.2691C22.4129 22.3922 22.3438 22.5591 22.3438 22.7331V26.1719C22.3438 26.3459 22.4129 26.5128 22.536 26.6359C22.659 26.759 22.826 26.8281 23 26.8281C23.174 26.8281 23.341 26.759 23.464 26.6359C23.5871 26.5128 23.6563 26.3459 23.6563 26.1719V23.3194C27.2219 22.4794 26.6969 17.2819 23 17.2031Z" fill="#F3F4F8"/>
<path d="M23 27.5234C22.8155 27.5234 22.6386 27.5967 22.5081 27.7272C22.3777 27.8576 22.3044 28.0346 22.3044 28.2191C22.3044 28.4036 22.3777 28.5805 22.5081 28.7109C22.6386 28.8414 22.8155 28.9147 23 28.9147C23.1845 28.9147 23.3614 28.8414 23.4919 28.7109C23.6223 28.5805 23.6956 28.4036 23.6956 28.2191C23.6956 28.0346 23.6223 27.8576 23.4919 27.7272C23.3614 27.5967 23.1845 27.5234 23 27.5234Z" fill="#F3F4F8"/>
</svg>
